<?xml version="1.0" encoding="UTF-8"?><svg id="Layer_2" xmlns="http://www.w3.org/2000/svg" viewBox="0 0 74.93 93.8"><defs><style>.cls-1{opacity:.13;}.cls-1,.cls-2{fill:#d6ad60;}</style></defs><g id="Symbol"><path class="cls-2" d="m50.96,72.22c0,.73.03,1.46.06,2.19.19,4.16.8,8.31,1.82,12.35,1.52,1.9,4.36-.67,4.96-2.95.06-.9.13-1.8.22-2.7.01-.14.03-.27.04-.41.74-7.64,1.61-15.14,4.02-22.42-.39.39-9.48,5.35-10.66,5.82-.33,2.69-.48,5.41-.46,8.12Z"/><path class="cls-2" d="m57.8,83.81c-.21,3.06-.28,6.12-.21,9.18-.86.24-1.74.41-2.62.51-.84-2.2-1.55-4.46-2.13-6.75,1.19-1.55,3.04-2.57,4.96-2.95Z"/><path class="cls-2" d="m62.55,91c-.27-.52-.57-1.02-.9-1.5-2.17.18-4.9,1.06-7.2,2.58.21.56.4,1.14.6,1.7,1.3,0,5.99,0,8.58,0-.26-.96-.62-1.9-1.08-2.78Z"/><path class="cls-2" d="m61.2,91.63c.41.65.72,1.39.94,2.15h.87c-.01-.06-.03-.12-.04-.18-.21-.89-.58-1.73-1.09-2.46-.05-.08-.14-.12-.24-.12,0,0,0,0-.01,0-.32,0-.57.36-.42.61Z"/><path class="cls-2" d="m59.35,91.62c.41.65.72,1.39.94,2.15h.87c-.01-.06-.03-.12-.04-.18-.21-.89-.58-1.73-1.09-2.46-.05-.08-.14-.12-.24-.12,0,0,0,0-.01,0-.32,0-.57.36-.42.61Z"/><path class="cls-2" d="m57.42,91.62c.41.65.72,1.39.94,2.15h.87c-.01-.06-.03-.12-.04-.18-.21-.89-.58-1.73-1.09-2.46-.05-.08-.14-.12-.24-.12,0,0,0,0-.01,0-.32,0-.57.36-.42.61Z"/><path class="cls-2" d="m13.37,70.56c-5.77,3.83-9.23,7.44.09,5.2,1.02-.86.13-4.47-.09-5.2Z"/><path class="cls-2" d="m23.27,89.5c3.43-9.86,13.72-14.91,23.74-20.06,9.17-4.71,14.72-9.58,17.98-18.22-1.71-3.51-2.43-11.41-2.5-11.63.04-1.46,1.67-4.52,1.69-4.71-.1-.02-14.25-8.81-22.14-9.98-.83,2.89-3.63,9.82-5.02,12.47-5.01,5.3-18.37,15.29-23.36,25.7-4.84,10.28.14,20.85,9.6,26.42Z"/><path class="cls-2" d="m47.02,69.44c-.16-3.36-.13-7.87.23-11.22-1.67,3.76-4.1,9.87-5.5,13.71,1.48-.37,4.29-2.04,5.27-2.49Z"/><path class="cls-2" d="m17.44,72.54c2.63-.69,10.6-1.34,13.07,6.81,0,0-3.22,3.43-4.95,5.44-.25-2.43-.82-5.8-2.07-7.91-1.24-2.1-3.62-4.17-6.05-4.34Z"/><path class="cls-2" d="m35.41,72.22c0,.73.03,1.46.06,2.19.19,4.2.81,8.37,1.85,12.45,1.59,1.97,4.11,0,4.93-2.95.06-.93.14-1.87.22-2.8.01-.14.03-.27.04-.41.74-7.64,2.33-15.19,4.73-22.47-.39.39-10.19,5.4-11.37,5.87-.33,2.69-.48,5.41-.46,8.12Z"/><path class="cls-2" d="m42.25,83.91c-.21,3.06-.24,6.11-.17,9.17-.86.24-1.74.41-2.62.51-.84-2.2-1.56-4.45-2.14-6.74,1.19-1.55,3.01-2.57,4.93-2.95Z"/><path class="cls-2" d="m47.02,91c-.27-.52-.57-1.02-.9-1.5-2.17.18-4.91,1.07-7.21,2.58.21.56.4,1.13.61,1.7,1.3,0,5.99,0,8.58,0-.26-.96-.62-1.9-1.08-2.78Z"/><path class="cls-2" d="m45.66,91.63c.41.65.72,1.39.94,2.15h.87c-.01-.06-.03-.12-.04-.18-.21-.89-.58-1.73-1.09-2.46-.05-.08-.14-.12-.24-.12,0,0,0,0-.01,0-.32,0-.57.36-.42.61Z"/><path class="cls-2" d="m43.82,91.62c.41.65.72,1.39.94,2.15h.87c-.01-.06-.03-.12-.04-.18-.21-.89-.58-1.73-1.09-2.46-.05-.08-.14-.12-.24-.12,0,0,0,0-.01,0-.32,0-.57.36-.42.61Z"/><path class="cls-2" d="m41.89,91.62c.41.65.72,1.39.94,2.15h.87c-.01-.06-.03-.12-.04-.18-.21-.89-.58-1.73-1.09-2.46-.05-.08-.14-.12-.24-.12,0,0,0,0-.01,0-.32,0-.57.36-.42.61Z"/><path class="cls-2" d="m24.06,93.8h-11.67c.23-1.26.94-2.32,1.87-3.2.03,0,.04-.08.07-.08h13.9c-.86,1.04-2.72,2.86-4.17,3.28Z"/><path class="cls-2" d="m31.56,91.02c-.27-.52-.57-1.02-.9-1.5-2.17.18-4.92,1.07-7.21,2.59.21.56.41,1.13.62,1.69,1.3,0,5.99,0,8.58,0-.26-.96-.62-1.9-1.08-2.78Z"/><path class="cls-2" d="m30.21,91.64c.41.65.72,1.39.94,2.15h.87c-.01-.06-.03-.12-.04-.18-.21-.89-.58-1.73-1.09-2.46-.05-.08-.14-.12-.24-.12,0,0,0,0-.01,0-.32,0-.57.36-.42.61Z"/><path class="cls-2" d="m28.36,91.64c.41.65.72,1.39.94,2.15h.87c-.01-.06-.03-.12-.04-.18-.21-.89-.58-1.73-1.09-2.46-.05-.08-.14-.12-.24-.12,0,0,0,0-.01,0-.32,0-.57.36-.42.61Z"/><path class="cls-2" d="m26.43,91.64c.41.65.72,1.39.94,2.15h.87c-.01-.06-.03-.12-.04-.18-.21-.89-.58-1.73-1.09-2.46-.05-.08-.14-.12-.24-.12,0,0,0,0-.01,0-.32,0-.57.36-.42.61Z"/><path class="cls-2" d="m20.91,72.36c3.01.67,5.68,2.9,7.03,5.53s1.29,5.55.6,8.13c-2.15,8.07-13.41,6.27-13.41,6.27-2.06-2.57-3.61-5.71-3.91-8.91-1.06-11.19,6.69-11.69,9.69-11.02Z"/><path class="cls-2" d="m63.74,40.11c.23-2.32,1.03-10.43,1.26-12.79-2.46-.39-7.02-2.43-9.08-3.15-.69,4.9-1.42,9.82-2.11,14.73l9.93,1.21Z"/><path class="cls-2" d="m54.92,31.22c.33-2.35.66-4.7.99-7.04-.1-.04-13.1-3.02-13.28-2.02-.15.85-.34,1.77-.58,2.76-.02.1,11.16,5.43,12.87,6.31Z"/><path class="cls-2" d="m54.92,31.22c.22.11.44.23.65.36.38.9,1.3,1.51,2.27,1.67.97.16,1.97-.09,2.85-.51.88-.42,1.53-1.07,2.31-1.66.48.31.99.57,1.53.76.05-.45.09-.89.13-1.31,0-.08.02-.16.02-.24.03-.32.06-.63.09-.92,0-.06-8.52-5.05-8.88-5.18-.33,2.35-.66,4.7-.99,7.04Z"/><path class="cls-2" d="m61.65,2.37s3.37-1.93,4.71-1.78c.96.1,1.78.73,2.53,1.33,2.53,2.01,5.21,4.28,5.88,7.44.42,1.99-.04,4.08-.91,5.92-.87,1.84-2.12,3.46-3.37,5.06-1.37-2.96-1.78-6.15-2.38-9.36-.61-3.2-3.66-6.93-6.46-8.61Z"/><path class="cls-2" d="m59.3,26.15c4.41-1.79,7.11-3.42,10.43-6.73.08-.08.93-.61,1.01-.69.28-1.08.56-2.14.77-3.2.73-3.64-.66-7.14-3.57-9.44-2.02-1.59-3.67-2.84-6.24-3.93-2.47-.41-5.78-.53-5.78-.53-2.82-.19-5.54-.11-7.2,0-2.65,2.18,9.19,25.09,10.58,24.52Z"/><path class="cls-2" d="m61.37,15.64c.25.5.42.97.55,1.49,2.55-1.06,5.53-1.14,8.06-.05.08.04.17.07.25.11-.06-.29-.14-.57-.25-.86-2.68-1.2-5.78-1.44-8.61-.68Z"/><path class="cls-2" d="m60.02,1.93c2.85,2.51,3.47,5.8,4.74,9.16.77,2.03,1.78,4.09,3.67,6.01.27.03.92.3,1.6.64.84.42,1.73.94,2.03,1.24-.35-1.55-.22-2.68,0-3.74.78-3.88.36-6.13-2.81-8.5-1.09-.82-2.37-1.73-3.71-2.59-1.2-.77-2.51-1.6-3.88-2.01-.46-.1-1.08-.17-1.63-.21Z"/><path class="cls-2" d="m64.76,11.09c.77,2.03,1.78,4.09,3.67,6.01.27.03.92.3,1.6.64.3-.21.47-.58.6-.93.71-1.98.64-4.24-.19-6.17-.31-.73-.73-1.42-1.35-1.92-.61-.5-1.43-.79-2.21-.64-1.13.22-1.93,1.33-2.09,2.47-.02.18-.04.36-.04.54Z"/><path class="cls-2" d="m42.71,21.86c1.19,1.6,2.75,2.75,4.39,3.55,3.28,1.61,6.79,3.27,8.3,3.17.08,0,.15-.01.21-.02.06-.4.09-.89.12-1.43.05-.96.08-2.05.26-2.93.08-.39.19-.73.35-1,.85-1.5,1.99-2.64,3.34-3.51.97-.62,2.05-1.11,3.23-1.49.16-.57.27-1.15.32-1.73,0,0,0-.01,0-.02.04-.43.05-.86.03-1.29-.07-2.12-.74-4.3-1.76-6.29-1.59-3.14-4.02-5.84-6.27-7.22-.04-.03-.09-.04-.13-.06-.06-.02-.12-.02-.18-.03-2.89-.19-5.99,0-7.7,0-.46.38-.91,1.25-1.34,2.45-1.72,4.81-3,13.35-3.2,16.74-.04.6-.04.99,0,1.12Z"/><path class="cls-2" d="m54.47,16.25c1.25,1.4,3.23,2.72,5.21,3.45.97-.62,2.05-1.11,3.23-1.49.16-.57.27-1.15.32-1.73,0,0,0-.01,0-.02.04-.43.05-.86.03-1.29-.07-2.12-.74-4.3-1.76-6.29-1.04-.76-2.27-1.23-3.55-1.26-2.24-.05-4.51,1.47-5.02,3.65-.41,1.76.33,3.64,1.53,4.99Z"/><path class="cls-2" d="m56.27,30.55c.5.61,1.19,1.01,2.08,1.07,1.58.12,3.87-1.84,5.18-2.55,2.43-1.32,2.48-1.21,4.1-1.2.91,0,2.11,3.21,3.23,3.18.56-.01,1.07-.34,1.52-.84h0c1.34-1.51,2.17-4.66,2.28-6.18.23-3.31.15-4.85-2.79-6.36-1.51-.78-4.65-1.33-4.74-1.34-1.5-.16-3.16-.34-5.71.72-.61.25-1.18.57-1.74.92-4.12,2.55-5.67,9.83-3.42,12.59Z"/><path class="cls-2" d="m69.23,21.68c0-.1,0-.2,0-.29,0,.1,0,.2,0,.29Z"/><path class="cls-2" d="m56.27,30.55c.5.61,1.19,1.01,2.08,1.07,1.58.12,3.87-1.84,5.18-2.55,2.43-1.32,2.48-1.21,4.1-1.2.91,0,2.11,3.21,3.23,3.18.56-.01,1.07-.34,1.52-.84-.04.01-.08.03-.12.04-.34.1-.71.12-1.04,0-.33-.13-.6-.42-.65-.77.36-.47.71-1.08.92-1.63.21-.55.27-1.18.05-1.72-.24-.58-.76-.98-1.17-1.45-.71-.82-1.13-1.89-1.15-2.97-.06,1.14-.8,2.11-1.63,2.93-.9.89-2,1.55-2.99,2.34-.97.78-1.84,1.69-2.82,2.46-.98.77-2.12,1.41-3.36,1.54-.73.07-1.51-.06-2.16-.4Z"/><path class="cls-2" d="m63.74,28.97c.3.27.56.36.92.55.61.33,1.29.54,1.99.58.99.06,1.92-.16,2.72-.63.57-.34,1.21-1.16,1.23-1.19,1-1.54.24-2.54-.7-2.95-.67-.29-4.12.66-6.15,3.64Z"/><ellipse class="cls-2" cx="68.76" cy="20.01" rx="2.55" ry="1.65"/><ellipse class="cls-2" cx="68.98" cy="19.32" rx="2.76" ry="1.65"/><path class="cls-1" d="m68.6,18.36c0,.26.35.47.79.47s.79-.21.79-.47c0-.26-.35-.47-.79-.47s-.79.21-.79.47Z"/><path class="cls-2" d="m72.23,21.7c0,.25.13.48.28.52.16.04.28-.13.28-.38,0-.25-.13-.48-.28-.52-.16-.04-.28.13-.28.38Z"/><path class="cls-2" d="m72.99,23.13c0,.25.13.48.28.52.16.04.28-.13.28-.38,0-.25-.13-.48-.28-.52-.16-.04-.28.13-.28.38Z"/><path class="cls-2" d="m72.02,23.01c0,.25.13.48.28.52.16.04.28-.13.28-.38,0-.25-.13-.48-.28-.52-.16-.04-.28.13-.28.38Z"/><path class="cls-2" d="m72.76,24.49c0,.25.13.48.28.52.16.04.28-.13.28-.38s-.13-.48-.28-.52c-.16-.04-.28.13-.28.38Z"/><path class="cls-2" d="m64.27,21.33c0,.27-.22.56-.48.65-.27.09-.48-.05-.48-.32s.22-.56.48-.65c.27-.09.48.05.48.32Z"/><path class="cls-2" d="m62.98,23.1c0,.27-.22.56-.48.65-.27.09-.48-.05-.48-.32s.22-.56.48-.65c.27-.09.48.05.48.32Z"/><path class="cls-2" d="m64.63,22.66c0,.27-.22.56-.48.65-.27.09-.48-.05-.48-.32,0-.27.22-.56.48-.65.27-.09.48.05.48.32Z"/><path class="cls-2" d="m63.37,24.48c0,.27-.22.56-.48.65-.27.09-.48-.05-.48-.32,0-.27.22-.56.48-.65.27-.09.48.05.48.32Z"/><path class="cls-2" d="m42.03,24.89c.95,1.12,2.05,2.22,3.33,3.41.59-.45,1.15-.95,1.66-1.49.18-.19.36-.39.53-.6,1.06-1.26,1.91-2.71,2.49-4.26.9-2.4,1.16-5.02.62-7.53-.24-1.11-.61-2.19-.77-3.31-.15-1.12-.06-2.33.56-3.28.63-.94,1.62-1.7,2.68-1.27-1.2-1.89-2.93-4.04-5.14-3.69-.06.01-.12.02-.19.04-.21.05-.41.11-.6.2-.48.21-.91.52-1.3.89-1.72,4.81-3.28,15.72-3.48,19.11l-.39,1.79Z"/><path class="cls-2" d="m46.64.27c-1.95.87-3.01,3.24-4.58,5.03-1.5,1.71-5.83,6.93-4.67,9.82,1.81,4.51,3.84,7.04,7.41,10.34,4.16-3.13,6.4-8.76,5.3-13.88-.24-1.11-.61-2.19-.77-3.31s-.06-2.33.56-3.28,1.62-1.7,2.67-1.27c-1.2-1.89-2.93-4.04-5.14-3.69-.28.04-.54.12-.79.23Z"/><path class="cls-2" d="m69.08,8.71c-1.87-1.28-3.65.3-2.88,2.3-1.48-3.87,1.48-4.99,2.88-2.3Z"/><path class="cls-2" d="m54.61,8.73c3.48-3.26,6.34-1.4,6.5,1.72-.53-2.63-4.52-3-6.5-1.72Z"/><path class="cls-2" d="m69.59,20.01c.09-.29.28-.58.58-.75.12-.07.26-.12.4-.11.14,0,.27.08.3.2.05.2-.41.37-.54.55-.12.17-.16.44-.21.63s-.06.65-.28.71c-.67.17-.33-.98-.25-1.23Z"/><path class="cls-2" d="m68.96,20.01c0-.29-.1-.58-.34-.75-.1-.07-.22-.12-.36-.11-.14,0-.3.08-.36.2-.12.2.3.37.36.55.07.17.02.44,0,.63,0,.19-.15.65.06.71.62.17.64-.98.64-1.23Z"/><path class="cls-2" d="m68.68,14.5s.08.09.12.14c.02.02.03.04.05.06.33.37.94.27,1.13-.19.27-.65.29-1.38.02-2.08-.15-.39-.39-.76-.69-1.11-.04-.05-.09-.1-.13-.14-.32-.32-.69-.62-1.11-.86h0c-.22-.13-.51,0-.56.26-.22,1.31.22,2.73,1.19,3.93Z"/><path class="cls-2" d="m68.68,14.5c.08-.05.15-.12.21-.19.2-.22.32-.5.4-.79.21-.77.16-1.6-.12-2.35-.32-.32-.69-.62-1.11-.86h0c-.22-.13-.51,0-.56.26-.22,1.31.22,2.73,1.19,3.93Z"/><path class="cls-2" d="m68.7,12.04c.05.29.2.51.34.49.14-.02.21-.28.16-.57s-.2-.51-.34-.49c-.14.02-.21.28-.16.57Z"/><path class="cls-2" d="m55.22,13.57c.47.54,1.08.97,1.76,1.22.42.15.86.24,1.32.24h.01c.76,0,1.36-.67,1.3-1.45-.03-.36-.07-.73-.13-1.08-.11-.67-.28-1.33-.53-1.9-.2-.46-.67-.71-1.13-.61-.06.01-.11.03-.16.05h0c-.75.29-1.45.74-2.06,1.31-.14.13-.28.29-.4.44-.42.52-.41,1.29.03,1.79Z"/><path class="cls-2" d="m55.22,13.57c.47.54,1.08.97,1.76,1.22.01,0,.02,0,.03-.01.54-.22.94-.72,1.15-1.26.21-.55.24-1.15.22-1.73-.02-.57-.14-1.33-.54-1.81-.06.01-.11.03-.16.05h0c-.75.29-1.45.74-2.06,1.31-.14.13-.28.29-.4.44-.42.52-.41,1.29.03,1.79Z"/><path class="cls-2" d="m57.57,11.79c.08.35.27.6.44.56.16-.04.23-.35.15-.69s-.27-.6-.44-.56c-.16.04-.23.35-.15.69Z"/><path class="cls-2" d="m47.02,69.44c9.17-4.71,18.11-9.5,21.37-18.14-1.71-3.51-3.3-7.14-4.47-10.86-.07-.21-.09-.3-.16-.51.04-1.46.21-3.05.37-4.5-3.58.44-6.91,1.75-10.33,3.48,3.06,10.53.41,22.29-6.79,30.54Z"/><path class="cls-2" d="m15.75,8.52c-3.9,0-7.55,1.4-10.43,3.96l-2.18-2.14-1.17,7.48,7.45-1.32-2.37-2.33c2.42-2.09,5.46-3.23,8.7-3.23,7.35,0,13.32,5.98,13.32,13.32s-5.98,13.32-13.32,13.32S2.42,31.61,2.42,24.27c0-.32.01-.64.03-.96l-2.42-.17c-.03.37-.04.75-.04,1.13,0,8.68,7.06,15.75,15.75,15.75s15.75-7.06,15.75-15.75-7.06-15.75-15.75-15.75Zm-.91,4.85l.3,2.42h1.21l.3-2.42h-1.82Zm8.19,2.76l-6.52,5.84c-.24-.08-.5-.12-.76-.12-1.34,0-2.42,1.08-2.42,2.42s1.08,2.42,2.42,2.42c.15,0,.29-.01.44-.04l4.9,4.06,1.1-1.1-4.06-4.9c.07-.4.04-.81-.08-1.19l5.84-6.52-.86-.86Zm-18.18,7.23v1.82l2.42-.3v-1.21l-2.42-.3Zm21.8,0l-2.42.3v1.21l2.42.3v-1.82Zm-11.51,9.39l-.3,2.42h1.82l-.3-2.42h-1.21Z"/></g></svg>